#define x_width 20
#define x_height 14
static char x_bits[] = {
0x00, 0x00, 0xf0, 
0x00, 0x00, 0xf0, 
0x00, 0x00, 0xf0, 
0x00, 0xc6, 0xf0, 
0x00, 0xef, 0xf1, 
0x00, 0xff, 0xf1, 
0x00, 0xff, 0xf1, 
0x00, 0x7c, 0xf0, 
0x00, 0x7c, 0xf0, 
0x00, 0x38, 0xf0, 
0x00, 0x10, 0xf0, 
0x00, 0x00, 0xf0, 
0x00, 0x00, 0xf0, 
0x00, 0x00, 0xf0, 
}; 
