#define x_width 23
#define x_height 16
static char x_bits[] = {
0x00, 0x00, 0x80, 
0x00, 0x00, 0x80, 
0x00, 0x00, 0x80, 
0x00, 0xa8, 0x85, 
0x00, 0x00, 0x80, 
0x00, 0xf8, 0x87, 
0x00, 0xf8, 0x85, 
0x00, 0xf8, 0x87, 
0x00, 0xf8, 0x87, 
0x00, 0xf8, 0x87, 
0x00, 0x00, 0x80, 
0x00, 0xa8, 0x85, 
0x00, 0x00, 0x80, 
0x00, 0x00, 0x80, 
0x00, 0x00, 0x80, 
0x00, 0x00, 0x80, 
}; 
